<svg width="20" height="21" viewBox="0 0 20 21" fill="none" xmlns="http://www.w3.org/2000/svg">
<path d="M17.2669 18.208H2.33353V7.66634H17.2669M14.0669 0.958008V2.87467H5.53353V0.958008H3.4002V2.87467H2.33353C1.14953 2.87467 0.200195 3.72759 0.200195 4.79134V18.208C0.200195 18.7163 0.424956 19.2038 0.825034 19.5633C1.22511 19.9227 1.76773 20.1247 2.33353 20.1247H17.2669C17.8327 20.1247 18.3753 19.9227 18.7754 19.5633C19.1754 19.2038 19.4002 18.7163 19.4002 18.208V4.79134C19.4002 4.28301 19.1754 3.7955 18.7754 3.43605C18.3753 3.07661 17.8327 2.87467 17.2669 2.87467H16.2002V0.958008M15.1335 11.4997H9.8002V16.2913H15.1335V11.4997Z" fill="white"/>
</svg>
