<svg viewBox="0 0 22 21" fill="none" xmlns="http://www.w3.org/2000/svg">
<path d="M17.2669 10.5417C18.0135 10.5417 18.7282 10.6771 19.4002 10.9062V6.375L13.0002 0.125H2.33353C1.14953 0.125 0.200195 1.05208 0.200195 2.20833V16.7917C0.200195 17.3442 0.424956 17.8741 0.825034 18.2648C1.22511 18.6555 1.76773 18.875 2.33353 18.875H11.2402C11.0055 18.2188 10.8669 17.5208 10.8669 16.7917C10.8669 13.3438 13.7362 10.5417 17.2669 10.5417ZM11.9335 1.6875L17.8002 7.41667H11.9335V1.6875ZM21.5335 15.75V17.8333H18.3335V20.9583H16.2002V17.8333H13.0002V15.75H16.2002V12.625H18.3335V15.75H21.5335Z" fill="#FFFDF5"/>
</svg>
