<svg viewBox="0 0 33 33" fill="none" xmlns="http://www.w3.org/2000/svg">
<g clip-path="url(#clip0_2358_4006)">
<path d="M29.359 4.53833H4.49112C4.02002 4.53833 3.56822 4.72547 3.2351 5.05859C2.90199 5.39171 2.71484 5.84351 2.71484 6.31461V27.6299C2.71484 28.101 2.90199 28.5528 3.2351 28.886C3.56822 29.2191 4.02002 29.4062 4.49112 29.4062H29.359C29.8301 29.4062 30.2819 29.2191 30.615 28.886C30.9481 28.5528 31.1353 28.101 31.1353 27.6299V6.31461C31.1353 5.84351 30.9481 5.39171 30.615 5.05859C30.2819 4.72547 29.8301 4.53833 29.359 4.53833ZM8.86077 8.09089C9.38774 8.09089 9.90287 8.24715 10.341 8.53992C10.7792 8.83269 11.1207 9.24882 11.3224 9.73568C11.524 10.2225 11.5768 10.7583 11.474 11.2751C11.3712 11.792 11.1174 12.2667 10.7448 12.6393C10.3722 13.012 9.89741 13.2657 9.38057 13.3685C8.86372 13.4713 8.328 13.4186 7.84114 13.2169C7.35428 13.0152 6.93815 12.6737 6.64538 12.2356C6.35261 11.7974 6.19635 11.2823 6.19635 10.7553C6.19635 10.0487 6.47706 9.37095 6.97674 8.87128C7.47641 8.3716 8.15412 8.09089 8.86077 8.09089ZM6.2674 24.9655V21.3242L11.5962 15.9243C11.7626 15.7589 11.9877 15.666 12.2224 15.666C12.457 15.666 12.6821 15.7589 12.8485 15.9243L15.1488 18.1713L8.32788 24.9655H6.2674ZM27.5827 24.9655H10.8413L16.3744 19.4324L21.1704 14.6365C21.3368 14.4711 21.5619 14.3782 21.7965 14.3782C22.0311 14.3782 22.2562 14.4711 22.4226 14.6365L27.5827 19.7966V24.9655Z" fill="#554F43"/>
</g>
<defs>
<clipPath id="clip0_2358_4006">
<rect width="31.973" height="31.973" fill="white" transform="translate(0.9375 0.98584)"/>
</clipPath>
</defs>
</svg>
