<svg width="24" height="24" viewBox="0 0 24 24" fill="none" xmlns="http://www.w3.org/2000/svg">
<path d="M13.372 11.013L13.986 11.627L7.946 17.667H7.333V17.053L13.372 11.013ZM15.771 7.00002C15.5961 7.00094 15.4285 7.0702 15.304 7.19302L14.084 8.41302L16.584 10.913L17.804 9.69302C17.8658 9.63135 17.9148 9.55809 17.9483 9.47744C17.9817 9.39679 17.999 9.31034 17.999 9.22302C17.999 9.13571 17.9817 9.04926 17.9483 8.96861C17.9148 8.88796 17.8658 8.8147 17.804 8.75302L16.244 7.19302C16.1821 7.13116 16.1084 7.08223 16.0274 7.0491C15.9464 7.01596 15.8595 6.99928 15.772 7.00002M13.372 9.12702L6 16.5V19H8.5L15.872 11.627L13.372 9.12702Z" fill="white"/>
<path d="M19 1H17V3H7V1H5V3H4C3.46957 3 2.96086 3.21071 2.58579 3.58579C2.21071 3.96086 2 4.46957 2 5V21C2 21.5304 2.21071 22.0391 2.58579 22.4142C2.96086 22.7893 3.46957 23 4 23H20C20.5304 23 21.0391 22.7893 21.4142 22.4142C21.7893 22.0391 22 21.5304 22 21V5C22 4.46957 21.7893 3.96086 21.4142 3.58579C21.0391 3.21071 20.5304 3 20 3H19V1ZM4 21V5H20V21H4Z" fill="white"/>
</svg>
