<svg width="15" height="15" viewBox="0 0 15 15" fill="none" xmlns="http://www.w3.org/2000/svg">
<path d="M1.9137 4.96199C2.08173 4.78623 2.30959 4.6875 2.54718 4.6875C2.78476 4.6875 3.01262 4.78623 3.18065 4.96199L7.61585 9.60261L12.051 4.96199C12.22 4.79121 12.4464 4.69672 12.6813 4.69886C12.9162 4.70099 13.141 4.79959 13.3071 4.97341C13.4732 5.14723 13.5674 5.38236 13.5695 5.62817C13.5715 5.87398 13.4812 6.1108 13.318 6.28761L8.24932 11.5911C8.0813 11.7668 7.85344 11.8655 7.61585 11.8655C7.37826 11.8655 7.1504 11.7668 6.98238 11.5911L1.9137 6.28761C1.74573 6.1118 1.65137 5.87339 1.65137 5.6248C1.65137 5.37621 1.74573 5.13779 1.9137 4.96199Z" fill="#FFFEF9"/>
</svg>
