<svg width="23" height="18" viewBox="0 0 23 18" fill="none" xmlns="http://www.w3.org/2000/svg">
<path d="M9.856 17.25C9.856 17.25 8.448 17.25 8.448 15.875C8.448 14.5 9.856 10.375 15.488 10.375C21.12 10.375 22.528 14.5 22.528 15.875C22.528 17.25 21.12 17.25 21.12 17.25H9.856ZM15.488 9C16.6083 9 17.6827 8.5654 18.4748 7.79182C19.267 7.01823 19.712 5.96902 19.712 4.875C19.712 3.78098 19.267 2.73177 18.4748 1.95818C17.6827 1.1846 16.6083 0.75 15.488 0.75C14.3677 0.75 13.2933 1.1846 12.5012 1.95818C11.709 2.73177 11.264 3.78098 11.264 4.875C11.264 5.96902 11.709 7.01823 12.5012 7.79182C13.2933 8.5654 14.3677 9 15.488 9ZM7.34413 17.25C7.1355 16.8207 7.03141 16.3501 7.04 15.875C7.04 14.0119 7.99744 12.0938 9.76589 10.76C8.88333 10.4939 7.96361 10.364 7.04 10.375C1.408 10.375 0 14.5 0 15.875C0 17.25 1.408 17.25 1.408 17.25H7.34413ZM6.336 9C7.26956 9 8.16489 8.63784 8.82502 7.99318C9.48514 7.34852 9.856 6.47418 9.856 5.5625C9.856 4.65082 9.48514 3.77648 8.82502 3.13182C8.16489 2.48716 7.26956 2.125 6.336 2.125C5.40244 2.125 4.50711 2.48716 3.84698 3.13182C3.18686 3.77648 2.816 4.65082 2.816 5.5625C2.816 6.47418 3.18686 7.34852 3.84698 7.99318C4.50711 8.63784 5.40244 9 6.336 9Z" fill="#FFFDF5"/>
</svg>
