<svg viewBox="0 0 26 23" fill="none" xmlns="http://www.w3.org/2000/svg">
<path d="M20.2659 18.208H5.33255V7.66634H20.2659M17.0659 0.958008V2.87467H8.53255V0.958008H6.39922V2.87467H5.33255C4.14855 2.87467 3.19922 3.72759 3.19922 4.79134V18.208C3.19922 18.7163 3.42398 19.2038 3.82406 19.5633C4.22414 19.9227 4.76676 20.1247 5.33255 20.1247H20.2659C20.8317 20.1247 21.3743 19.9227 21.7744 19.5633C22.1745 19.2038 22.3992 18.7163 22.3992 18.208V4.79134C22.3992 4.28301 22.1745 3.7955 21.7744 3.43605C21.3743 3.07661 20.8317 2.87467 20.2659 2.87467H19.1992V0.958008M18.1326 11.4997H12.7992V16.2913H18.1326V11.4997Z" fill="white"/>
</svg>
