<svg width="22" height="22" viewBox="0 0 22 22" fill="none" xmlns="http://www.w3.org/2000/svg">
<g clip-path="url(#clip0_696_1436)">
<path fill-rule="evenodd" clip-rule="evenodd" d="M19.7508 4.68527C20.0086 4.94312 20.1534 5.29279 20.1534 5.65739C20.1534 6.02199 20.0086 6.37167 19.7508 6.62952L9.44477 16.9356C9.30857 17.0718 9.14687 17.1799 8.9689 17.2536C8.79094 17.3273 8.60019 17.3653 8.40756 17.3653C8.21492 17.3653 8.02418 17.3273 7.84621 17.2536C7.66825 17.1799 7.50655 17.0718 7.37035 16.9356L2.24985 11.816C2.11852 11.6892 2.01377 11.5375 1.94171 11.3697C1.86965 11.2019 1.83172 11.0215 1.83013 10.8389C1.82854 10.6564 1.86333 10.4753 1.93247 10.3063C2.00161 10.1373 2.1037 9.98383 2.23281 9.85472C2.36191 9.72562 2.51543 9.62352 2.68441 9.55439C2.85339 9.48525 3.03445 9.45046 3.21703 9.45205C3.3996 9.45363 3.58003 9.49156 3.74778 9.56363C3.91554 9.63569 4.06726 9.74044 4.1941 9.87177L8.4071 14.0848L17.8057 4.68527C17.9334 4.55749 18.085 4.45613 18.2519 4.38698C18.4188 4.31782 18.5976 4.28223 18.7783 4.28223C18.9589 4.28223 19.1378 4.31782 19.3047 4.38698C19.4715 4.45613 19.6232 4.55749 19.7508 4.68527Z" fill="#FFFEF9"/>
</g>
<defs>
<clipPath id="clip0_696_1436">
<rect width="22" height="22" fill="white"/>
</clipPath>
</defs>
</svg>
