<svg width="19" height="26" viewBox="0 0 19 26" fill="none" xmlns="http://www.w3.org/2000/svg">
<path d="M1.93195 8.3824H16.8358L15.9448 22.8202C15.904 23.4792 15.6167 24.0977 15.1412 24.5498C14.6658 25.0019 14.0381 25.2536 13.3858 25.2536H5.38323C4.73095 25.2536 4.1032 25.0019 3.62779 24.5498C3.15237 24.0977 2.86503 23.4792 2.82426 22.8202L1.93195 8.3824ZM18.3589 4.48905V7.08462H0.410156V4.48905H4.25631V3.19127C4.25631 2.50288 4.52646 1.84269 5.00732 1.35593C5.48818 0.869164 6.14037 0.595703 6.82041 0.595703H11.9486C12.6287 0.595703 13.2808 0.869164 13.7617 1.35593C14.2426 1.84269 14.5127 2.50288 14.5127 3.19127V4.48905H18.3589ZM6.82041 4.48905H11.9486V3.19127H6.82041V4.48905Z" fill="#770000"/>
</svg>
