<svg viewBox="0 0 31 32" fill="none" xmlns="http://www.w3.org/2000/svg">
<path d="M21.1683 7.03884L23.8841 9.78801M22.9143 4.61691L15.5672 12.0541C15.1876 12.4378 14.9287 12.9268 14.8232 13.4592L14.1445 16.898L17.5416 16.2097C18.0676 16.1032 18.5499 15.8422 18.9297 15.4578L26.2767 8.02059C26.4975 7.7971 26.6726 7.53178 26.7921 7.23978C26.9116 6.94778 26.9731 6.63481 26.9731 6.31875C26.9731 6.00269 26.9116 5.68973 26.7921 5.39772C26.6726 5.10572 26.4975 4.8404 26.2767 4.61691C26.0559 4.39342 25.7938 4.21614 25.5053 4.09519C25.2169 3.97424 24.9077 3.91199 24.5955 3.91199C24.2833 3.91199 23.9741 3.97424 23.6856 4.09519C23.3972 4.21614 23.1351 4.39342 22.9143 4.61691Z" stroke="#554F43" stroke-width="2" stroke-linecap="round" stroke-linejoin="round"/>
<path d="M24.4072 19.4952V23.3911C24.4072 24.0799 24.1369 24.7405 23.6557 25.2276C23.1745 25.7147 22.5219 25.9883 21.8415 25.9883H7.72982C7.04934 25.9883 6.39673 25.7147 5.91555 25.2276C5.43438 24.7405 5.16406 24.0799 5.16406 23.3911V9.10627C5.16406 8.41744 5.43438 7.75682 5.91555 7.26975C6.39673 6.78267 7.04934 6.50903 7.72982 6.50903H11.5784" stroke="#554F43" stroke-width="2" stroke-linecap="round" stroke-linejoin="round"/>
</svg>
