<svg width="25" height="26" viewBox="0 0 25 26" fill="none" xmlns="http://www.w3.org/2000/svg">
<path d="M17.1616 5.70246L19.3668 7.93473M18.5793 3.73591L12.6137 9.77474C12.3055 10.0863 12.0952 10.4833 12.0095 10.9157L11.4585 13.7078L14.2168 13.149C14.6439 13.0625 15.0356 12.8506 15.3439 12.5385L21.3095 6.49962C21.4888 6.31816 21.631 6.10272 21.728 5.86562C21.825 5.62852 21.875 5.3744 21.875 5.11777C21.875 4.86113 21.825 4.60701 21.728 4.36991C21.631 4.13281 21.4888 3.91738 21.3095 3.73591C21.1303 3.55444 20.9174 3.4105 20.6832 3.31229C20.449 3.21408 20.198 3.16353 19.9444 3.16353C19.6909 3.16353 19.4399 3.21408 19.2056 3.31229C18.9714 3.4105 18.7586 3.55444 18.5793 3.73591Z" stroke="#100F49" stroke-width="2" stroke-linecap="round" stroke-linejoin="round"/>
<path d="M19.7917 15.8167V18.9801C19.7917 19.5394 19.5723 20.0758 19.1816 20.4713C18.7909 20.8668 18.261 21.089 17.7084 21.089H6.25008C5.69755 21.089 5.16764 20.8668 4.77694 20.4713C4.38624 20.0758 4.16675 19.5394 4.16675 18.9801V7.38115C4.16675 6.82183 4.38624 6.28542 4.77694 5.88993C5.16764 5.49443 5.69755 5.27225 6.25008 5.27225H9.37508" stroke="#100F49" stroke-width="2" stroke-linecap="round" stroke-linejoin="round"/>
</svg>
