<svg width="21" height="21" viewBox="0 0 21 21" fill="none" xmlns="http://www.w3.org/2000/svg">
<path d="M10.5 14.4375C8.33438 14.4375 6.5625 12.6656 6.5625 10.5C6.5625 8.33438 8.33438 6.5625 10.5 6.5625C12.6656 6.5625 14.4375 8.33438 14.4375 10.5C14.4375 12.6656 12.6656 14.4375 10.5 14.4375ZM10.5 7.875C9.05625 7.875 7.875 9.05625 7.875 10.5C7.875 11.9438 9.05625 13.125 10.5 13.125C11.9438 13.125 13.125 11.9438 13.125 10.5C13.125 9.05625 11.9438 7.875 10.5 7.875Z" fill="black"/>
<path d="M10.5002 17.0625C6.31329 17.0625 2.63829 14.5162 1.35204 10.71C1.29932 10.575 1.29932 10.425 1.35204 10.29C2.63829 6.49688 6.32641 3.9375 10.5002 3.9375C14.6739 3.9375 18.362 6.48375 19.6483 10.29C19.7008 10.4213 19.7008 10.5787 19.6483 10.71C18.362 14.5031 14.6739 17.0625 10.5002 17.0625ZM2.66454 10.5C3.83266 13.65 6.95641 15.75 10.5002 15.75C14.0439 15.75 17.1545 13.65 18.3358 10.5C17.1677 7.35 14.0439 5.25 10.5002 5.25C6.95641 5.25 3.84578 7.35 2.66454 10.5Z" fill="black"/>
<path d="M18.375 19.0312C18.2889 19.0322 18.2036 19.0153 18.1245 18.9814C18.0454 18.9475 17.9742 18.8974 17.9156 18.8343L2.16563 3.08432C1.90313 2.82182 1.90313 2.41494 2.16563 2.15244C2.42813 1.88994 2.835 1.88994 3.0975 2.15244L18.8344 17.9156C19.0969 18.1781 19.0969 18.5849 18.8344 18.8474C18.7031 18.9787 18.5325 19.0443 18.375 19.0443V19.0312Z" fill="black"/>
</svg>
