<svg viewBox="0 0 36 40" fill="none" xmlns="http://www.w3.org/2000/svg">
<path d="M30.1068 4.95264H5.89606C5.55362 4.95234 5.21836 5.05232 4.93042 5.24061C4.64248 5.42889 4.41407 5.6975 4.27254 6.01427C4.13101 6.33104 4.08236 6.68254 4.13242 7.02667C4.18247 7.37081 4.32911 7.69299 4.55478 7.95464L13.999 18.9167C14.283 19.2469 14.4394 19.6707 14.4389 20.1092V28.9288C14.4389 29.0693 14.4711 29.2078 14.533 29.3334C14.5948 29.4591 14.6846 29.5684 14.7952 29.6526L20.1389 33.7241C20.2713 33.8249 20.4286 33.8863 20.5933 33.9014C20.7581 33.9165 20.9237 33.8846 21.0716 33.8095C21.2195 33.7344 21.344 33.6188 21.4309 33.4759C21.5179 33.333 21.5639 33.1683 21.5639 33.0003V20.1092C21.5635 19.6707 21.7199 19.2469 22.0039 18.9167L31.4481 7.95283C32.4563 6.78388 31.6369 4.95264 30.1068 4.95264Z" stroke="#848484" stroke-width="2" stroke-linecap="round"/>
</svg>
