<svg width="153" height="170" viewBox="0 0 153 170" fill="none" xmlns="http://www.w3.org/2000/svg">
<rect x="12.6289" y="15.1926" width="127.489" height="141.662" rx="15" fill="#F1EEE7"/>
<path d="M12.6289 47.2773H140.118V141.662C140.118 149.946 133.402 156.662 125.118 156.662H27.6289C19.3446 156.662 12.6289 149.946 12.6289 141.662V47.2773Z" fill="#E6E3DB"/>
<path d="M12.6289 30.1926C12.6289 21.9084 19.3446 15.1926 27.6289 15.1926H107.348V52.8495H12.6289V30.1926Z" fill="#E6E3DB"/>
<rect width="23.7758" height="45.7573" transform="matrix(0.707373 -0.70684 0.707373 0.70684 90.7461 31.9734)" fill="#E6E3DB"/>
<path d="M107.389 15L140.119 47.4073L95.4941 59.4808L107.389 15Z" fill="#BFBFBE"/>
<path d="M139.954 47.7545C133.543 45.1989 123.93 44.4515 113.23 45.6767C102.53 46.9019 91.6198 49.9993 82.8992 54.2875C74.1786 58.5757 68.362 63.7035 66.729 68.5427C65.0961 73.382 67.7805 77.5364 74.1917 80.092L139.954 47.7545Z" fill="#E6E3DB"/>
<rect width="10.767" height="12.5602" transform="matrix(0.73422 -0.678911 0.679463 0.73371 91.4824 45.8835)" fill="#E6E3DB"/>
<path d="M107.041 46.5914L106.843 46.5807C103.29 46.3872 100.567 43.3501 100.761 39.7972V39.7972L107.392 40.1584L107.041 46.5914Z" fill="#BFBFBE"/>
<rect y="0.230835" width="152.784" height="169.769" rx="15" fill="#F1EEE7"/>
<path d="M0 38.6816H152.784V154.769C152.784 163.053 146.069 169.769 137.784 169.769H15C6.71571 169.769 0 163.053 0 154.769V38.6816Z" fill="#100F49"/>
<path d="M0 15.2308C0 6.94655 6.71573 0.230835 15 0.230835H113.512V45.3593H0V15.2308Z" fill="#100F49"/>
<rect width="28.4933" height="54.8361" transform="matrix(0.707373 -0.70684 0.707373 0.70684 93.6152 20.3411)" fill="#100F49"/>
<path d="M113.562 0L152.785 38.8373L99.3066 53.3064L113.562 0Z" fill="#CACAD7"/>
<path d="M152.589 39.2533C144.906 36.1906 133.385 35.295 120.563 36.7632C107.74 38.2315 94.6648 41.9434 84.2139 47.0825C73.763 52.2215 66.7924 58.3667 64.8354 64.1662C62.8784 69.9656 66.0955 74.9443 73.7788 78.0069L152.589 39.2533Z" fill="#100F49"/>
<rect width="12.9033" height="15.0523" transform="matrix(0.73422 -0.678911 0.679463 0.73371 94.498 37.011)" fill="#100F49"/>
<path d="M113.145 37.8596L112.907 37.8467C108.65 37.6148 105.386 33.9752 105.618 29.7174V29.7174L113.565 30.1502L113.145 37.8596Z" fill="#CACAD7"/>
</svg>
