<svg viewBox="0 0 40 40" fill="none" xmlns="http://www.w3.org/2000/svg">
<path d="M39.1654 19.9999C39.1654 19.4916 38.9634 19.0041 38.604 18.6446C38.2445 18.2852 37.757 18.0833 37.2487 18.0833C36.7404 18.0833 36.2529 18.2852 35.8934 18.6446C35.534 19.0041 35.332 19.4916 35.332 19.9999H39.1654ZM19.9987 4.66659C20.507 4.66659 20.9945 4.46465 21.354 4.10521C21.7134 3.74576 21.9154 3.25825 21.9154 2.74992C21.9154 2.24159 21.7134 1.75408 21.354 1.39463C20.9945 1.03519 20.507 0.833252 19.9987 0.833252V4.66659ZM34.3737 35.3333H5.6237V39.1666H34.3737V35.3333ZM4.66536 34.3749V5.62492H0.832031V34.3749H4.66536ZM35.332 19.9999V34.3749H39.1654V19.9999H35.332ZM5.6237 4.66659H19.9987V0.833252H5.6237V4.66659ZM5.6237 35.3333C5.36953 35.3333 5.12578 35.2323 4.94605 35.0526C4.76633 34.8728 4.66536 34.6291 4.66536 34.3749H0.832031C0.832031 35.6457 1.33687 36.8645 2.23548 37.7631C3.13409 38.6618 4.35287 39.1666 5.6237 39.1666V35.3333ZM34.3737 39.1666C35.6445 39.1666 36.8633 38.6618 37.7619 37.7631C38.6605 36.8645 39.1654 35.6457 39.1654 34.3749H35.332C35.332 34.6291 35.2311 34.8728 35.0513 35.0526C34.8716 35.2323 34.6279 35.3333 34.3737 35.3333V39.1666ZM4.66536 5.62492C4.66536 5.37075 4.76633 5.127 4.94605 4.94727C5.12578 4.76755 5.36953 4.66659 5.6237 4.66659V0.833252C4.35287 0.833252 3.13409 1.33809 2.23548 2.2367C1.33687 3.13531 0.832031 4.35409 0.832031 5.62492H4.66536Z" fill="#9B9B9B"/>
<path d="M2.75 30.5417L12.9975 21.1481C13.3429 20.8315 13.7922 20.6524 14.2607 20.6447C14.7291 20.6369 15.1842 20.801 15.5399 21.1059L27.6667 31.5M23.8333 26.7083L28.4075 22.1342C28.7337 21.8077 29.1668 21.61 29.6272 21.5772C30.0876 21.5445 30.5443 21.679 30.9135 21.956L37.25 26.7083M25.75 8.5H37.25M31.5 2.75V14.25" stroke="#9B9B9B" stroke-width="4" stroke-linecap="round" stroke-linejoin="round"/>
</svg>
