<svg viewBox="0 0 33 33" fill="none" xmlns="http://www.w3.org/2000/svg">
<path d="M30.018 12.0224V22.0288C30.018 22.2942 29.9126 22.5487 29.725 22.7364C29.5373 22.924 29.2828 23.0294 29.0174 23.0294H25.0148V27.032C25.0148 27.2974 24.9094 27.5519 24.7217 27.7396C24.5341 27.9272 24.2796 28.0327 24.0142 28.0327H8.00386C7.73848 28.0327 7.48396 27.9272 7.2963 27.7396C7.10864 27.5519 7.00322 27.2974 7.00322 27.032V23.0294H3.00064C2.73526 23.0294 2.48074 22.924 2.29308 22.7364C2.10542 22.5487 2 22.2942 2 22.0288V12.0224C2 10.3675 3.42091 9.02043 5.16829 9.02043H7.00322V5.01786C7.00322 4.75247 7.10864 4.49795 7.2963 4.31029C7.48396 4.12264 7.73848 4.01721 8.00386 4.01721H24.0142C24.2796 4.01721 24.5341 4.12264 24.7217 4.31029C24.9094 4.49795 25.0148 4.75247 25.0148 5.01786V9.02043H26.8497C28.5971 9.02043 30.018 10.3675 30.018 12.0224ZM9.00451 9.02043H23.0135V6.0185H9.00451V9.02043ZM23.0135 20.0275H9.00451V26.0314H23.0135V20.0275ZM25.0148 14.524C25.0148 14.2271 24.9268 13.9369 24.7619 13.6901C24.5969 13.4432 24.3625 13.2509 24.0882 13.1373C23.814 13.0237 23.5122 12.9939 23.221 13.0518C22.9299 13.1098 22.6624 13.2527 22.4525 13.4626C22.2426 13.6725 22.0996 13.94 22.0417 14.2311C21.9838 14.5223 22.0135 14.8241 22.1271 15.0984C22.2407 15.3726 22.4331 15.6071 22.68 15.772C22.9268 15.9369 23.217 16.0249 23.5138 16.0249C23.9119 16.0249 24.2937 15.8668 24.5752 15.5853C24.8567 15.3038 25.0148 14.9221 25.0148 14.524Z" fill="#554F43"/>
</svg>
