<svg width="128" height="142" viewBox="0 0 128 142" fill="none" xmlns="http://www.w3.org/2000/svg">
<rect y="0.192505" width="127.489" height="141.662" rx="15" fill="#F1EEE7"/>
<path d="M0 32.2773H127.489V126.662C127.489 134.946 120.773 141.662 112.489 141.662H15C6.71573 141.662 0 134.946 0 126.662V32.2773Z" fill="#E5E3DB"/>
<path d="M0 15.1925C0 6.90825 6.71573 0.192505 15 0.192505H94.719V37.8494H0V15.1925Z" fill="#E5E3DB"/>
<rect width="23.7758" height="45.7573" transform="matrix(0.707373 -0.70684 0.707373 0.70684 78.1172 16.9734)" fill="#E5E3DB"/>
<path d="M94.7605 0L127.49 32.4073L82.8652 44.4808L94.7605 0Z" fill="#BFBFBE"/>
<path d="M127.325 32.7542C120.914 30.1987 111.301 29.4513 100.601 30.6765C89.9011 31.9016 78.9909 34.999 70.2703 39.2872C61.5497 43.5755 55.7331 48.7032 54.1001 53.5425C52.4671 58.3818 55.1515 62.5362 61.5628 65.0917L127.325 32.7542Z" fill="#E5E3DB"/>
<rect width="10.767" height="12.5602" transform="matrix(0.73422 -0.678911 0.679463 0.73371 78.8535 30.8833)" fill="#E5E3DB"/>
<path d="M94.4121 31.5917L94.2142 31.5809C90.6613 31.3874 87.9382 28.3504 88.132 24.7975V24.7975L94.763 25.1586L94.4121 31.5917Z" fill="#BFBFBE"/>
</svg>
