<svg width="14" height="14" viewBox="0 0 14 14" fill="none" xmlns="http://www.w3.org/2000/svg">
<path fill-rule="evenodd" clip-rule="evenodd" d="M9.21128 10.4043C8.0691 11.2457 6.65117 11.6245 5.24154 11.4647C3.83191 11.3049 2.53471 10.6184 1.60981 9.54274C0.68491 8.46704 0.200628 7.08159 0.253983 5.66394C0.307338 4.24629 0.894389 2.90115 1.89753 1.89802C2.90067 0.894878 4.2458 0.307826 5.66345 0.254471C7.0811 0.201116 8.46655 0.685399 9.54226 1.6103C10.618 2.5352 11.3045 3.8324 11.4642 5.24203C11.624 6.65165 11.2452 8.06959 10.4038 9.21177L13.5032 12.31C13.5861 12.3873 13.6525 12.4804 13.6987 12.5839C13.7448 12.6874 13.7696 12.7991 13.7716 12.9124C13.7736 13.0257 13.7527 13.1383 13.7103 13.2433C13.6679 13.3484 13.6047 13.4438 13.5246 13.5239C13.4445 13.6041 13.349 13.6672 13.244 13.7097C13.1389 13.7521 13.0264 13.7729 12.9131 13.7709C12.7998 13.7689 12.6881 13.7441 12.5846 13.698C12.4811 13.6519 12.3879 13.5854 12.3107 13.5025L9.21128 10.4043ZM9.81316 5.87502C9.81316 6.91931 9.39832 7.92083 8.65989 8.65926C7.92147 9.39768 6.91995 9.81252 5.87566 9.81252C4.83137 9.81252 3.82985 9.39768 3.09143 8.65926C2.353 7.92083 1.93816 6.91931 1.93816 5.87502C1.93816 4.83073 2.353 3.82921 3.09143 3.09079C3.82985 2.35237 4.83137 1.93752 5.87566 1.93752C6.91995 1.93752 7.92147 2.35237 8.65989 3.09079C9.39832 3.82921 9.81316 4.83073 9.81316 5.87502Z" fill="#6B6B6B"/>
</svg>
