<svg viewBox="0 0 32 32" fill="none" xmlns="http://www.w3.org/2000/svg">
<path d="M8.24543 10.4049H23.1589L22.2673 24.852C22.2265 25.5114 21.939 26.1303 21.4632 26.5827C20.9875 27.0351 20.3594 27.2869 19.7067 27.2869H11.6989C11.0462 27.2869 10.4181 27.0351 9.94236 26.5827C9.46663 26.1303 9.17911 25.5114 9.13831 24.852L8.24543 10.4049ZM24.6829 6.50902V9.10625H6.72266V6.50902H10.5713V5.2104C10.5713 4.52157 10.8416 3.86095 11.3228 3.37387C11.804 2.8868 12.4566 2.61316 13.137 2.61316H18.2685C18.949 2.61316 19.6016 2.8868 20.0828 3.37387C20.564 3.86095 20.8343 4.52157 20.8343 5.2104V6.50902H24.6829ZM13.137 6.50902H18.2685V5.2104H13.137V6.50902Z" fill="#554F43"/>
</svg>
