<svg width="26" height="26" viewBox="0 0 26 26" fill="none" xmlns="http://www.w3.org/2000/svg">
<path d="M6.58558 8.4356H18.695L17.971 20.1663C17.9379 20.7018 17.7044 21.2043 17.3181 21.5716C16.9319 21.9389 16.4218 22.1434 15.8918 22.1434H9.38975C8.85977 22.1434 8.34972 21.9389 7.96344 21.5716C7.57717 21.2043 7.3437 20.7018 7.31058 20.1663L6.58558 8.4356ZM19.9325 5.27225V7.38115H5.34912V5.27225H8.47412V4.2178C8.47412 3.65849 8.69361 3.12208 9.08432 2.72658C9.47502 2.33109 10.0049 2.1089 10.5575 2.1089H14.7241C15.2767 2.1089 15.8066 2.33109 16.1973 2.72658C16.588 3.12208 16.8075 3.65849 16.8075 4.2178V5.27225H19.9325ZM10.5575 5.27225H14.7241V4.2178H10.5575V5.27225Z" fill="#100F49"/>
</svg>
