<svg width="20" height="20" viewBox="0 0 20 20" fill="none" xmlns="http://www.w3.org/2000/svg">
<g clip-path="url(#clip0_1129_1906)">
<path d="M8.75065 16.6666C8.75065 16.9981 8.88235 17.316 9.11677 17.5505C9.35119 17.7849 9.66913 17.9166 10.0007 17.9166C10.3322 17.9166 10.6501 17.7849 10.8845 17.5505C11.119 17.316 11.2507 16.9981 11.2507 16.6666V11.2499H16.6673C16.9988 11.2499 17.3168 11.1182 17.5512 10.8838C17.7856 10.6494 17.9173 10.3314 17.9173 9.99992C17.9173 9.6684 17.7856 9.35046 17.5512 9.11603C17.3168 8.88161 16.9988 8.74992 16.6673 8.74992H11.2507V3.33325C11.2507 3.00173 11.119 2.68379 10.8845 2.44937C10.6501 2.21495 10.3322 2.08325 10.0007 2.08325C9.66913 2.08325 9.35119 2.21495 9.11677 2.44937C8.88235 2.68379 8.75065 3.00173 8.75065 3.33325V8.74992H3.33398C3.00246 8.74992 2.68452 8.88161 2.4501 9.11603C2.21568 9.35046 2.08398 9.6684 2.08398 9.99992C2.08398 10.3314 2.21568 10.6494 2.4501 10.8838C2.68452 11.1182 3.00246 11.2499 3.33398 11.2499H8.75065V16.6666Z" fill="white"/>
</g>
<defs>
<clipPath id="clip0_1129_1906">
<rect width="20" height="20" fill="white"/>
</clipPath>
</defs>
</svg>
